<svg width="22" height="22" viewBox="0 0 22 22" fill="none" xmlns="http://www.w3.org/2000/svg">
<path d="M5.28596 8.94049C7.43146 5.1441 8.50419 3.24589 9.97627 2.75727C10.786 2.48846 11.6584 2.48846 12.4682 2.75727C13.9403 3.24589 15.013 5.1441 17.1585 8.94049C19.304 12.7368 20.3767 14.6351 20.0549 16.1817C19.8779 17.0327 19.4417 17.8044 18.8089 18.3865C17.6587 19.4446 15.5132 19.4446 11.2222 19.4446C6.93124 19.4446 4.78575 19.4446 3.63552 18.3865C3.00274 17.8044 2.56657 17.0327 2.38953 16.1817C2.06772 14.6351 3.14047 12.7368 5.28596 8.94049Z" stroke="#052FA7" stroke-width="1.33333"/>
<path d="M11.2151 14.5557H11.2231" stroke="#052FA7" stroke-width="1.77778" stroke-linecap="round" stroke-linejoin="round"/>
<path d="M11.2222 11.8886V8.33301" stroke="#052FA7" stroke-width="1.33333" stroke-linecap="round" stroke-linejoin="round"/>
</svg>
