<svg width="16" height="16" viewBox="0 0 16 16" fill="none" xmlns="http://www.w3.org/2000/svg">
<path d="M14.6666 8.66274C14.1843 11.7335 11.347 14.0883 8.00331 14.0883C7.57025 14.0888 7.13838 14.0488 6.71298 13.9689C6.40675 13.9114 6.25365 13.8826 6.14675 13.8989C6.03987 13.9153 5.88839 13.9958 5.58545 14.1569C4.72845 14.6127 3.72915 14.7737 2.76811 14.5949C3.13338 14.1456 3.38284 13.6065 3.49292 13.0285C3.55962 12.675 3.39435 12.3316 3.14682 12.0802C2.02255 10.9385 1.33331 9.39994 1.33331 7.70667C1.33331 4.29047 4.13971 1.50082 7.66665 1.33301" stroke="#052FA7" stroke-linecap="round" stroke-linejoin="round"/>
<path d="M13.3446 5.34857L14.6666 6.66634M14.0354 3.68403C14.0354 2.38559 12.9828 1.33301 11.6843 1.33301C10.3859 1.33301 9.33331 2.38559 9.33331 3.68403C9.33331 4.98246 10.3859 6.03505 11.6843 6.03505C12.9828 6.03505 14.0354 4.98246 14.0354 3.68403Z" stroke="#052FA7" stroke-linecap="round" stroke-linejoin="round"/>
<path d="M7.99698 8H8.00298M10.6606 8H10.6666M5.33331 8H5.33929" stroke="#052FA7" stroke-width="1.33333" stroke-linecap="round" stroke-linejoin="round"/>
</svg>
