<svg width="24" height="25" viewBox="0 0 24 25" fill="none" xmlns="http://www.w3.org/2000/svg">
<path d="M24 12.5C24 5.87258 18.6274 0.5 12 0.5C5.37258 0.5 0 5.87258 0 12.5C0 19.1274 5.37258 24.5 12 24.5C18.6274 24.5 24 19.1274 24 12.5Z" fill="white"/>
<path d="M18.6667 13.6627C18.1843 16.7335 15.3471 19.0883 12.0033 19.0883C11.5703 19.0888 11.1384 19.0488 10.713 18.9689C10.4068 18.9114 10.2537 18.8826 10.1468 18.8989C10.0399 18.9153 9.88842 18.9958 9.58548 19.1569C8.72848 19.6127 7.72918 19.7737 6.76814 19.5949C7.13341 19.1456 7.38287 18.6065 7.49295 18.0285C7.55965 17.675 7.39438 17.3316 7.14685 17.0802C6.02258 15.9385 5.33334 14.3999 5.33334 12.7067C5.33334 9.29047 8.13974 6.50082 11.6667 6.33301" stroke="#052FA7" stroke-linecap="round" stroke-linejoin="round"/>
<path d="M17.3447 10.3486L18.6667 11.6663M18.0354 8.68403C18.0354 7.38559 16.9828 6.33301 15.6843 6.33301C14.3859 6.33301 13.3333 7.38559 13.3333 8.68403C13.3333 9.98246 14.3859 11.035 15.6843 11.035C16.9828 11.035 18.0354 9.98246 18.0354 8.68403Z" stroke="#052FA7" stroke-linecap="round" stroke-linejoin="round"/>
<path d="M11.997 13H12.003M14.6607 13H14.6667M9.33334 13H9.33932" stroke="#052FA7" stroke-width="1.33333" stroke-linecap="round" stroke-linejoin="round"/>
</svg>
