<svg width="23" height="22" viewBox="0 0 23 22" fill="none" xmlns="http://www.w3.org/2000/svg">
<path d="M8.83334 13.6663C8.83334 11.1522 8.83334 9.89514 9.61439 9.11406C10.3955 8.33301 11.6525 8.33301 14.1667 8.33301H15.0556C17.5697 8.33301 18.8268 8.33301 19.6078 9.11406C20.3889 9.89514 20.3889 11.1522 20.3889 13.6663V14.5552C20.3889 17.0694 20.3889 18.3264 19.6078 19.1075C18.8268 19.8886 17.5697 19.8886 15.0556 19.8886H14.1667C11.6525 19.8886 10.3955 19.8886 9.61439 19.1075C8.83334 18.3264 8.83334 17.0694 8.83334 14.5552V13.6663Z" stroke="#003AD6" stroke-width="1.33333" stroke-linecap="round" stroke-linejoin="round"/>
<path d="M15.9444 8.33257C15.9422 5.70405 15.9025 4.34254 15.1373 3.41029C14.9896 3.23025 14.8245 3.06518 14.6445 2.91743C13.6611 2.11035 12.2 2.11035 9.27778 2.11035C6.35558 2.11035 4.89447 2.11035 3.91105 2.91743C3.73102 3.06517 3.56594 3.23025 3.41819 3.41029C2.61111 4.39371 2.61111 5.85481 2.61111 8.77702C2.61111 11.6992 2.61111 13.1603 3.41819 14.1438C3.56593 14.3238 3.73102 14.4888 3.91105 14.6366C4.8433 15.4017 6.20481 15.4415 8.83334 15.4436" stroke="#003AD6" stroke-width="1.33333" stroke-linecap="round" stroke-linejoin="round"/>
</svg>
