<svg width="21" height="20" viewBox="0 0 21 20" fill="none" xmlns="http://www.w3.org/2000/svg">
<path d="M3 13.3337L6.72472 9.60891C7.00769 9.32599 7.39148 9.16699 7.79167 9.16699C8.19185 9.16699 8.57564 9.32599 8.85858 9.60891L12.1667 12.917M12.1667 12.917L13.4167 14.167M12.1667 12.917L13.8081 11.2756C14.091 10.9927 14.4748 10.8337 14.875 10.8337C15.2752 10.8337 15.659 10.9927 15.9419 11.2756L18 13.3337" stroke="#4D5B70" stroke-linecap="round" stroke-linejoin="round"/>
<path d="M10.5 2.08301C6.9752 2.08301 5.21281 2.08301 4.04395 3.08132C3.87796 3.22307 3.72338 3.37766 3.58162 3.54364C2.58331 4.71251 2.58331 6.4749 2.58331 9.99967C2.58331 13.5244 2.58331 15.2868 3.58162 16.4557C3.72338 16.6217 3.87796 16.7763 4.04395 16.918C5.21281 17.9163 6.9752 17.9163 10.5 17.9163C14.0247 17.9163 15.7871 17.9163 16.956 16.918C17.122 16.7763 17.2766 16.6217 17.4183 16.4557C18.4166 15.2868 18.4166 13.5244 18.4166 9.99967" stroke="#4D5B70" stroke-linecap="round" stroke-linejoin="round"/>
<path d="M13.4167 4.58301C13.9082 4.07731 15.2164 2.08301 15.9167 2.08301C16.6169 2.08301 17.9252 4.07731 18.4167 4.58301M15.9167 2.49967V7.91634" stroke="#4D5B70" stroke-linecap="round" stroke-linejoin="round"/>
</svg>
