<svg width="22" height="22" viewBox="0 0 22 22" fill="none" xmlns="http://www.w3.org/2000/svg">
<path d="M14.2778 15.4444L14.4644 15.631C14.7921 15.9588 14.956 16.1227 15.1544 16.1116C15.3528 16.1007 15.4975 15.9196 15.787 15.5577L16.9441 14.1111M11.6111 14.0705V14.4136C11.6111 15.482 11.6111 16.0161 11.743 16.505C11.9059 17.1087 12.2148 17.6654 12.6436 18.1286C12.9908 18.5036 13.4492 18.7956 14.3656 19.3796C14.7759 19.6411 14.9811 19.7718 15.1991 19.8326C15.4684 19.9076 15.7538 19.9076 16.0231 19.8326C16.2412 19.7718 16.4463 19.6411 16.8566 19.3796C17.7731 18.7956 18.2314 18.5036 18.5786 18.1286C19.0075 17.6654 19.3164 17.1087 19.4792 16.505C19.6111 16.0161 19.6111 15.482 19.6111 14.4136V14.0705C19.6111 13.4052 19.6111 13.0726 19.4851 12.7917C19.4073 12.6185 19.2959 12.4616 19.1571 12.3298C18.9319 12.116 18.6129 11.9992 17.9747 11.7656L16.6644 11.286C16.1436 11.0954 15.8831 11 15.6111 11C15.3391 11 15.0787 11.0954 14.5578 11.286L13.2476 11.7656C12.6093 11.9992 12.2903 12.116 12.0652 12.3298C11.9263 12.4616 11.8149 12.6185 11.7372 12.7917C11.6111 13.0726 11.6111 13.4052 11.6111 14.0705Z" stroke="#052FA7" stroke-width="1.33333" stroke-linecap="round" stroke-linejoin="round"/>
<path d="M14.43 7.36288V8.77702M14.43 7.36288C14.43 6.69345 14.9929 6.15076 15.6872 6.15076C16.3816 6.15076 16.9444 6.69345 16.9444 7.36288V8.77702M14.43 7.36288V4.93864C14.43 4.2692 13.8671 3.72652 13.1727 3.72652C12.4784 3.72652 11.9155 4.2692 11.9155 4.93864M11.9155 4.93864V8.77702M11.9155 4.93864V3.32248C11.9155 2.65304 11.3526 2.11035 10.6582 2.11035C9.96392 2.11035 9.40098 2.65304 9.40098 3.32248V5.74672M9.40098 5.74672C9.40098 5.07728 8.83814 4.5346 8.14378 4.5346C7.44943 4.5346 6.88654 5.07728 6.88654 5.74672V11.5664C6.88654 11.9361 6.41319 12.1116 6.15547 11.8374L4.11878 9.66973C3.77247 9.26075 3.18719 9.12232 2.6839 9.33026C1.7876 9.70057 1.57732 11.0084 2.15987 11.7623C3.15669 13.0524 4.17803 14.8139 5.00256 16.3671C6.12155 18.475 8.33008 19.8881 10.7861 19.8881M9.40098 5.74672V8.77702" stroke="#052FA7" stroke-width="1.33333" stroke-linecap="round" stroke-linejoin="round"/>
</svg>
