<svg width="17" height="16" viewBox="0 0 17 16" fill="none" xmlns="http://www.w3.org/2000/svg">
<path d="M10.8333 11.3333L10.9732 11.4733C11.219 11.7191 11.342 11.842 11.4908 11.8337C11.6396 11.8255 11.7481 11.6897 11.9652 11.4183L12.833 10.3333M8.83331 10.3029V10.5602C8.83331 11.3615 8.83331 11.7621 8.93225 12.1287C9.05438 12.5815 9.28605 12.9991 9.60771 13.3465C9.86811 13.6277 10.2118 13.8467 10.8992 14.2847C11.2069 14.4808 11.3608 14.5789 11.5243 14.6245C11.7263 14.6807 11.9403 14.6807 12.1423 14.6245C12.3058 14.5789 12.4597 14.4808 12.7674 14.2847C13.4548 13.8467 13.7985 13.6277 14.0589 13.3465C14.3806 12.9991 14.6122 12.5815 14.7344 12.1287C14.8333 11.7621 14.8333 11.3615 14.8333 10.5602V10.3029C14.8333 9.80393 14.8333 9.55447 14.7388 9.3438C14.6804 9.21387 14.5969 9.0962 14.4928 8.99733C14.3239 8.837 14.0846 8.7494 13.606 8.5742L12.6233 8.21453C12.2326 8.07153 12.0373 8 11.8333 8C11.6293 8 11.434 8.07153 11.0433 8.21453L10.0606 8.5742C9.58198 8.7494 9.34271 8.837 9.17385 8.99733C9.06971 9.0962 8.98618 9.21387 8.92785 9.3438C8.83331 9.55447 8.83331 9.80393 8.83331 10.3029Z" stroke="#052FA7" stroke-linecap="round" stroke-linejoin="round"/>
<path d="M10.9475 5.27241V6.33301M10.9475 5.27241C10.9475 4.77033 11.3697 4.36331 11.8904 4.36331C12.4112 4.36331 12.8333 4.77033 12.8333 5.27241V6.33301M10.9475 5.27241V3.45423C10.9475 2.95215 10.5253 2.54513 10.0045 2.54513C9.4838 2.54513 9.0616 2.95215 9.0616 3.45423M9.0616 3.45423V6.33301M9.0616 3.45423V2.2421C9.0616 1.74002 8.63947 1.33301 8.11867 1.33301C7.59793 1.33301 7.17573 1.74002 7.17573 2.2421V4.06029M7.17573 4.06029C7.17573 3.55821 6.7536 3.15119 6.23283 3.15119C5.71207 3.15119 5.2899 3.55821 5.2899 4.06029V8.42501C5.2899 8.70234 4.93489 8.83394 4.7416 8.62827L3.21408 7.00254C2.95435 6.69581 2.51539 6.59198 2.13792 6.74794C1.4657 7.02567 1.30799 8.00654 1.7449 8.57194C2.49251 9.53954 3.25852 10.8607 3.87692 12.0255C4.71616 13.6065 6.37256 14.6663 8.2146 14.6663M7.17573 4.06029V6.33301" stroke="#052FA7" stroke-linecap="round" stroke-linejoin="round"/>
</svg>
