<svg width="16" height="16" viewBox="0 0 16 16" fill="none" xmlns="http://www.w3.org/2000/svg">
<path d="M2 10.6668L4.97978 7.68703C5.20615 7.4607 5.51319 7.3335 5.83333 7.3335C6.15348 7.3335 6.46051 7.4607 6.68687 7.68703L9.33333 10.3335M9.33333 10.3335L10.3333 11.3335M9.33333 10.3335L10.6465 9.02036C10.8728 8.79403 11.1799 8.66683 11.5 8.66683C11.8201 8.66683 12.1272 8.79403 12.3535 9.02036L14 10.6668" stroke="#003AD6" stroke-linecap="round" stroke-linejoin="round"/>
<path d="M8.00002 1.6665C5.1802 1.6665 3.77029 1.6665 2.83519 2.46515C2.70241 2.57856 2.57874 2.70222 2.46533 2.83501C1.66669 3.7701 1.66669 5.18002 1.66669 7.99984C1.66669 10.8196 1.66669 12.2296 2.46533 13.1646C2.57874 13.2974 2.70241 13.4211 2.83519 13.5345C3.77029 14.3332 5.1802 14.3332 8.00002 14.3332C10.8198 14.3332 12.2298 14.3332 13.1648 13.5345C13.2976 13.4211 13.4213 13.2974 13.5347 13.1646C14.3334 12.2296 14.3334 10.8196 14.3334 7.99984" stroke="#003AD6" stroke-linecap="round" stroke-linejoin="round"/>
<path d="M10.3333 3.6665C10.7265 3.26194 11.7731 1.6665 12.3333 1.6665C12.8935 1.6665 13.9401 3.26194 14.3333 3.6665M12.3333 1.99984V6.33317" stroke="#003AD6" stroke-linecap="round" stroke-linejoin="round"/>
</svg>
